<?xml version="1.0" standalone="no"?>
<!DOCTYPE svg PUBLIC "-//W3C//DTD SVG 20010904//EN"
 "http://www.w3.org/TR/2001/REC-SVG-20010904/DTD/svg10.dtd">
<svg version="1.0" xmlns="http://www.w3.org/2000/svg"
 width="363.000000pt" height="397.000000pt" viewBox="0 0 363.000000 397.000000"
 preserveAspectRatio="xMidYMid meet">

<g transform="translate(0.000000,397.000000) scale(0.100000,-0.100000)"
fill="#000000" stroke="none">
<path d="M3049 3216 c-36 -25 -82 -63 -102 -87 -74 -86 -137 -236 -162 -386
l-7 -43 36 0 c36 0 36 0 36 43 0 66 27 176 57 236 35 70 129 171 188 202 45
24 50 33 39 63 -9 22 -11 21 -85 -28z"/>
<path d="M3323 3045 c-122 -57 -189 -140 -250 -305 -22 -61 -22 -66 -6 -77 33
-25 53 -16 53 22 0 116 134 289 253 326 31 10 37 16 37 41 0 15 -3 28 -7 28
-5 -1 -41 -16 -80 -35z"/>
<path d="M1729 2460 c-39 -41 -129 -199 -129 -227 0 -8 218 -64 248 -63 9 0
11 10 6 38 -9 50 -34 126 -44 132 -5 3 -11 19 -14 35 -5 25 -5 26 4 10 8 -16
9 -11 5 20 -3 22 -5 48 -6 58 0 17 -2 18 -25 3 -13 -9 -24 -14 -24 -11 0 11
28 35 40 35 6 0 8 5 5 10 -10 16 -18 12 -66 -40z"/>
<path d="M2875 2358 c-135 -47 -168 -271 -57 -384 63 -64 156 -80 232 -41 100
50 137 194 79 308 -48 97 -162 149 -254 117z m174 -63 c52 -26 57 -86 11 -110
-52 -27 -100 2 -100 60 0 24 7 39 22 49 28 20 32 20 67 1z"/>
<path d="M1589 2208 c-4 -24 -7 -90 -3 -81 4 9 11 10 24 3 28 -15 34 4 14 45
-13 28 -32 46 -35 33z"/>
<path d="M1043 2110 c-23 -11 -44 -24 -47 -28 -9 -15 79 0 92 16 9 12 12 12
12 2 0 -7 2 -11 5 -8 7 6 -5 38 -14 38 -3 -1 -25 -10 -48 -20z"/>
<path d="M540 1191 c0 -6 4 -13 10 -16 6 -3 7 1 4 9 -7 18 -14 21 -14 7z"/>
<path d="M705 890 c-3 -5 -1 -10 4 -10 6 0 11 5 11 10 0 6 -2 10 -4 10 -3 0
-8 -4 -11 -10z"/>
<path d="M1816 886 c8 -21 -147 -85 -288 -120 -70 -17 -128 -34 -128 -38 0
-21 429 -338 459 -338 19 0 203 195 238 253 19 32 34 59 32 61 -2 2 -38 22
-79 46 -41 24 -102 62 -135 84 -81 55 -105 68 -99 52z"/>
<path d="M530 867 c0 -70 88 -264 162 -359 19 -24 21 -40 21 -121 -1 -100 -12
-169 -44 -280 -11 -38 -19 -73 -17 -78 2 -5 34 12 73 38 80 54 210 116 275
133 25 6 54 16 66 21 15 8 46 6 112 -5 51 -9 127 -16 170 -15 l77 0 -29 22
c-193 146 -392 329 -526 485 -77 89 -98 107 -109 98 -12 -9 -13 -8 -8 7 4 11
1 28 -8 40 -8 12 -15 17 -15 11 0 -5 5 -15 10 -20 8 -8 7 -14 -2 -22 -13 -11
-46 0 -156 49 -53 24 -52 24 -52 -4z"/>
</g>
</svg>
